<svg width="28" height="28" viewBox="0 0 28 28" fill="none" xmlns="http://www.w3.org/2000/svg">
<path d="M14 23.9167C7.87497 23.9167 2.91664 18.9584 2.91664 12.8334V5.77504C2.91664 4.84171 3.67497 4.08337 4.60831 4.08337H23.3916C24.325 4.08337 25.0833 4.84171 25.0833 5.77504V12.8334C25.0833 18.9584 20.125 23.9167 14 23.9167Z" fill="white"/>
<path d="M14 18.0833C13.65 18.0833 13.2416 17.9667 12.95 17.675L7.40829 12.1333C6.82496 11.55 6.82496 10.6167 7.40829 10.0917C7.99163 9.50834 8.92496 9.50834 9.44996 10.0917L14 14.5833L18.4916 10.0917C19.075 9.50834 20.0083 9.50834 20.5333 10.0917C21.1166 10.675 21.1166 11.6083 20.5333 12.1333L14.9916 17.675C14.7583 17.9667 14.35 18.0833 14 18.0833Z" fill="#EF4056"/>
</svg>
