<svg width="101" height="72" viewBox="0 0 101 72" fill="none" xmlns="http://www.w3.org/2000/svg">
<path d="M79.2219 27.7895C81.1156 25.2632 86.1656 19.5789 89.6375 17.0526C97.8437 10.7368 98.475 10.1053 98.475 6.63157C98.475 2.5263 95.3187 0 91.8469 0C85.2187 0 56.8125 22.1053 56.8125 48C56.8125 66.6316 70.7 72 78.9062 72C90.5844 72 101 62.5263 101 49.8947C101 38.8421 92.4781 28.421 79.2219 27.7895ZM22.4094 27.7895C24.3031 25.2632 29.3531 19.5789 32.825 17.0526C40.7156 10.7368 41.6625 10.1053 41.6625 6.63157C41.6625 2.5263 38.5062 0 35.0344 0C28.0906 0 0 22.1053 0 48C0 66.6316 13.5719 72 22.0937 72C33.7719 72 43.8719 62.5263 43.8719 49.8947C43.8719 38.8421 35.35 28.421 22.4094 27.7895Z" fill="white"/>
</svg>
