<svg width="21" height="19" viewBox="0 0 21 19" fill="none" xmlns="http://www.w3.org/2000/svg">
<path d="M13.7842 10.7499C13.5755 10.2443 13.2878 9.79727 12.9209 9.41622C12.5612 9.0425 12.1439 8.74206 11.6691 8.50757C11.6259 8.48559 11.5827 8.46361 11.5396 8.44895C11.5683 8.42697 11.6043 8.40498 11.6331 8.37567C12.0144 8.08256 12.3453 7.73083 12.6043 7.34245C12.8633 6.95408 13.0576 6.52174 13.1799 6.06009C13.3022 5.60576 13.3597 5.13679 13.3597 4.66781C13.3597 3.09233 12.7482 1.8979 11.5324 1.11383C10.3885 0.36639 8.7482 0 6.51079 0H0V18.2609H6.18705C8.67626 18.2609 10.6259 17.7846 11.9784 16.8466C13.3885 15.8647 14.1079 14.3845 14.1079 12.4499C14.1007 11.8344 14 11.2628 13.7842 10.7499ZM4.51079 10.6546H6.15827C7.28777 10.6546 8.11511 10.8378 8.6259 11.1895C9.08633 11.512 9.30216 11.9297 9.30216 12.5012C9.30216 12.787 9.24461 13.0435 9.1295 13.2853C9.01439 13.5271 8.84892 13.7396 8.6259 13.9228C8.39568 14.1133 8.10072 14.2672 7.74101 14.3771C7.3741 14.4944 6.92806 14.553 6.42446 14.553H4.51079V10.6546ZM8.56115 5.97215C8.48201 6.18466 8.35252 6.36786 8.16547 6.52907C7.97122 6.70493 7.70504 6.84416 7.38849 6.94675C7.05036 7.05667 6.61871 7.11529 6.10791 7.11529H4.51079V3.62726H6.10791C6.61871 3.62726 7.05755 3.67123 7.41007 3.76649C7.73381 3.84709 8 3.96434 8.19425 4.11089C8.36691 4.24279 8.48921 4.38935 8.56835 4.56522C8.65468 4.76307 8.69784 4.9829 8.69784 5.23205C8.69065 5.49585 8.64748 5.74499 8.56115 5.97215Z" fill="white"/>
<path d="M21.0002 15.872C21.0002 17.191 19.9498 18.2609 18.6548 18.2609C17.3599 18.2609 16.3095 17.191 16.3095 15.872C16.3095 14.553 17.3599 13.4832 18.6548 13.4832C19.9498 13.4832 21.0002 14.553 21.0002 15.872Z" fill="white"/>
<path d="M20.9138 0H16.3958V12.1422H20.9138V0Z" fill="white"/>
</svg>
