<svg width="191" height="43" viewBox="0 0 191 43" fill="none" xmlns="http://www.w3.org/2000/svg">
<g clip-path="url(#clip0)">
<path d="M147.4 33.8H64.1999L62.2 42.8H142.7L147.4 33.8Z" fill="black"/>
<path d="M0 42.8H36.3L36.9 33.8H0.6L0 42.8Z" fill="black"/>
<path d="M160.6 42.8H188.6L189.1 33.8H165.8L160.6 42.8Z" fill="black"/>
<path d="M15.1 14.7L14.6 18.6C13.8 17.6 13 16.9 12.3 16.4C11.6 15.9 10.7 15.7 9.8 15.7C8.3 15.7 7.1 16.3 6.2 17.3C5.2 18.4 4.8 19.8 4.8 21.5C4.8 23.1 5.3 24.4 6.1 25.3C7 26.3 8.2 26.8 9.6 26.8C11 26.8 12.4 26.2 13.8 25L13.3 29.1C11.8 29.7 10.4 30 9.1 30C6.7 30 4.7 29.2 3.2 27.6C1.8 26.2 1 24.1 1 21.6C1 19 1.8 16.8 3.4 15.1C5 13.4 7 12.5 9.4 12.5C11.5 12.5 13.3 13.3 15.1 14.7Z" fill="black"/>
<path d="M38.3 13.1L36.3 29.6H32.5L32.8 27.8C31.1 29.3 29.4001 30 27.7001 30C25.5001 30 23.8 29.2 22.4 27.8C21 26.3 20.3 24.4 20.3 22C20.3 19.3 21.1001 17 22.7001 15.3C24.3001 13.5 26.3 12.7 28.8 12.7C30 12.7 31 12.9 31.8 13.3C32.7 13.7 33.5001 14.4 34.4001 15.3L34.7001 13.1H38.3ZM33.6 20.8C33.6 19.3 33.2 18.2 32.3 17.3C31.4 16.4 30.4 15.9 29.1 15.9C27.6 15.9 26.4 16.5 25.5 17.6C24.5 18.8 24 20.1 24 21.8C24 23.3 24.4001 24.4 25.2001 25.3C26.0001 26.2 27.1 26.7 28.3 26.7C29.7 26.7 30.9 26.1 32 25C33.1 23.8 33.6 22.5 33.6 20.8Z" fill="black"/>
<path d="M61.6 13.1L59.6 29.7C59.4 30.7 58.8001 35.6 58.7001 36.3C58.5001 37.1 58.3 37.7 58.1 38.2C57.7 39.2 57.1 40.1 56.3 40.8C54.7 42.2 52.7 42.9 50.3 42.9C47.7 42.9 45.7 42.2 44.1 40.9C43.3 40.2 42.7001 39.4 42.4001 38.6C42.1001 37.8 42.0001 37.2 41.9001 36.5C41.9001 36 41.8 35.6 41.8 35.3C43 35.3 44.3 35.3 45.5 35.3C45.5 35.6 45.5 35.9 45.6 36.4C45.7 36.8 45.9001 37.9 46.7001 38.7C47.7001 39.8 49.3001 39.8 49.9001 39.8C51.5001 39.8 52.7 39.4 53.5 38.5C54.3 37.6 55.4 32.3 55.6 30.5L55.9001 28.2C54.3001 29.5 52.6 30.1 50.8 30.1C48.6 30.1 46.7 29.3 45.3 27.8C43.8 26.2 43.1 24.3 43.1 21.9C43.1 19.3 44 17.1 45.6 15.4C47.3 13.7 49.4001 12.8 51.9001 12.8C53.1001 12.8 54.1001 13 54.9001 13.4C55.7001 13.8 56.6 14.4 57.5 15.3L57.8 13.3H61.6V13.1ZM57.1 20.9C57.1 19.4 56.6001 18.2 55.7001 17.3C54.8001 16.4 53.6 15.9 52.1 15.9C50.6 15.9 49.3 16.5 48.3 17.6C47.3 18.7 46.8 20.1 46.8 21.8C46.8 23.3 47.3 24.5 48.1 25.4C48.9 26.3 50.1 26.8 51.6 26.8C53.2 26.8 54.5 26.2 55.5 25.1C56.6 24 57.1 22.6 57.1 20.9Z" fill="black"/>
<path d="M69.6001 22.7C69.6001 23.9 70.0001 24.9 70.9001 25.7C71.8001 26.5 72.8001 26.9 74.1001 26.9C75.9001 26.9 77.3001 26.2 78.2001 24.9L81.1001 26.5C80.1001 27.9 79.1001 28.8 78.0001 29.3C77.0001 29.8 75.6001 30 74.0001 30C71.4001 30 69.4001 29.2 67.9001 27.7C66.4001 26.2 65.6001 24.2 65.6001 21.7C65.6001 19.1 66.4001 16.8 68.1001 15.1C69.8001 13.3 71.8001 12.5 74.3001 12.5C76.7001 12.5 78.7001 13.3 80.1001 14.9C81.5001 16.5 82.3001 18.6 82.3001 21.3C82.3001 21.6 82.3001 22.1 82.2001 22.7H69.6001ZM78.4001 19.6C78.0001 17.1 76.6001 15.8 74.2001 15.8C71.9001 15.8 70.5001 17.1 69.8001 19.6H78.4001Z" fill="black"/>
<path d="M91.1 27.7C91.1 28.3 90.8 28.9 90.4 29.3C89.9 29.8 89.4 30 88.7 30C88 30 87.5 29.7 87 29.3C86.5 28.8 86.3 28.2 86.3 27.6C86.3 27 86.5 26.4 86.9 25.9C87.4 25.4 87.9 25.2 88.5 25.2C89.2 25.2 89.8 25.5 90.3 25.9C90.8 26.4 91.1 27 91.1 27.7Z" fill="#F0AC34"/>
<path d="M102.4 16.6L100.8 29.5H96.9999L98.5999 16.6H96.3999L96.8999 13H98.9999L99.9999 5.39999H103.8L102.8 13H106.4L105.9 16.6H102.4Z" fill="black"/>
<path d="M127.4 21.1C127.4 23.6 126.5 25.8 124.8 27.5C123.1 29.2 120.9 30.1 118.4 30.1C115.7 30.1 113.6 29.3 111.9 27.7C110.2 26.1 109.3 24 109.3 21.5C109.3 18.9 110.2 16.8 111.9 15.1C113.7 13.4 115.9 12.5 118.5 12.5C121.1 12.5 123.2 13.3 124.8 14.9C126.6 16.5 127.4 18.6 127.4 21.1ZM123.5 21C123.5 19.4 123 18.2 122.1 17.3C121.2 16.3 120 15.9 118.5 15.9C116.9 15.9 115.7 16.5 114.7 17.5C113.7 18.6 113.2 19.9 113.2 21.5C113.2 23.1 113.7 24.4 114.6 25.4C115.6 26.4 116.8 26.9 118.3 26.9C119.8 26.9 121.1 26.3 122 25.2C123 24.1 123.5 22.7 123.5 21Z" fill="black"/>
<path d="M138.9 0L136.5 19.5L143.4 13.1H148.5L139.9 20.6L146.8 29.6H142.2L136.2 21.8L135.2 29.6H131.4L135.1 0H138.9Z" fill="black"/>
<path d="M170.5 13.1L153.9 42.7H149.5L157.8 27.5L152 13.1H156.1L160.2 23.6L166.1 13.1H170.5V13.1Z" fill="black"/>
<path d="M191 21.1C191 23.6 190.1 25.8 188.4 27.5C186.7 29.2 184.5 30.1 182 30.1C179.3 30.1 177.2 29.3 175.5 27.7C173.8 26.1 172.9 24 172.9 21.5C172.9 18.9 173.8 16.8 175.5 15.1C177.3 13.4 179.5 12.5 182.1 12.5C184.7 12.5 186.8 13.3 188.4 14.9C190.1 16.5 191 18.6 191 21.1ZM187.1 21C187.1 19.4 186.6 18.2 185.7 17.3C184.8 16.3 183.6 15.9 182.1 15.9C180.5 15.9 179.3 16.5 178.3 17.5C177.3 18.6 176.8 19.9 176.8 21.5C176.8 23.1 177.3 24.4 178.2 25.4C179.2 26.4 180.4 26.9 181.9 26.9C183.4 26.9 184.7 26.3 185.6 25.2C186.6 24.1 187.1 22.7 187.1 21Z" fill="black"/>
<path d="M75.1 37.4C75 38.3 74.9 38.9 74.5 39.5C74.2 40.1 73.7 40.6 73.1 41L73 41.1H72.9C72.7 41 72.4 40.9 72.2 40.8C73 40.3 73.5 39.9 73.8 39.3C74.1 38.8 74.2 38.2 74.3 37.5H72.9C72.6 38 72.2 38.4 71.9 38.7L71.8 38.8H71.7C71.5 38.7 71.3 38.6 71 38.5C71.8 37.7 72.3 37 72.7 36.2C72.9 35.9 72.9 35.6 73 35.2C73.3 35.3 73.6 35.4 73.8 35.5C73.9 35.5 73.9 35.6 73.9 35.6C73.9 35.6 73.9 35.7 73.8 35.7C73.7 35.8 73.6 35.9 73.6 36C73.5 36.2 73.4 36.5 73.3 36.7H75.5C75.9 36.7 76.4 36.7 76.8 36.7C76.9 36.7 76.9 36.7 76.9 36.8C76.9 37 76.9 37.2 76.9 37.4C76.9 37.5 76.9 37.5 76.8 37.5C76.5 37.5 75.9 37.5 75.5 37.5H75.1V37.4Z" fill="white"/>
<path d="M81.1999 38.6C80.4999 38.6 80.1999 38.7 80.1999 38.7C80.0999 38.7 80.0999 38.7 79.9999 38.6C79.9999 38.4 79.8999 38.1 79.8999 37.8C80.3999 37.9 80.6999 37.9 81.3999 37.9H83.6999C84.1999 37.9 84.7999 37.9 85.2999 37.9C85.3999 37.9 85.3999 37.9 85.3999 38C85.3999 38.2 85.3999 38.4 85.3999 38.7C85.3999 38.8 85.3999 38.8 85.2999 38.8C84.7999 38.8 84.2999 38.8 83.6999 38.8H81.1999V38.6Z" fill="white"/>
<path d="M88.9 37.2L89 37.1C89.5 37.3 89.9 37.5 90.3 37.8L90.4 37.9C90.4 37.9 90.4 37.9 90.4 38C90.3 38.2 90.2 38.4 90.1 38.5L90 38.6C90 38.6 90 38.6 89.9 38.6C89.5 38.3 89 38 88.5 37.8C88.8 37.6 88.9 37.3 88.9 37.2ZM90.1 39.8C90.8 39.4 91.3 39.1 92 38.6C92.6 38.2 93.3 37.5 94 36.6C94 36.9 94.1 37.1 94.2 37.4V37.5C94.2 37.6 94.2 37.6 94.1 37.7C93.4 38.4 93 38.8 92.3 39.3C91.7 39.8 91 40.2 90.2 40.6C90 40.7 89.9 40.8 89.8 40.8L89.7 40.9C89.7 40.9 89.6 40.9 89.6 40.8C89.5 40.7 89.3 40.4 89.1 40.1C89.4 40.1 89.7 40 90.1 39.8ZM89.8 35.6C89.8 35.5 89.9 35.5 90 35.5C90.4 35.7 90.9 35.9 91.3 36.3L91.4 36.4V36.5C91.3 36.7 91.2 36.9 91 37C91 37 91 37 90.9 37H90.8C90.4 36.7 89.9 36.3 89.4 36.1C89.5 36 89.7 35.8 89.8 35.6ZM93 35.4H93.1C93.3 35.6 93.6 35.8 93.8 36.1V36.2L93.5 36.4H93.4C93.2 36.1 93 35.8 92.7 35.6L93 35.4ZM93.6 35H93.7C94 35.2 94.2 35.5 94.4 35.7V35.8L94.1 36C94 36 94 36 94 36C93.8 35.7 93.6 35.4 93.3 35.2L93.6 35Z" fill="white"/>
<path d="M99.7999 37.2C100.7 37.5 101.3 37.7 102 38.2C102.1 38.2 102.1 38.3 102.1 38.4C102 38.6 101.9 38.8 101.8 39L101.7 39.1C101.7 39.1 101.7 39.1 101.6 39.1C101 38.7 100.3 38.4 99.7999 38.2V39.7C99.7999 40.2 99.7999 40.6 99.7999 41.1C99.7999 41.2 99.7999 41.2 99.6999 41.2C99.4999 41.2 99.2999 41.2 99.0999 41.2C98.9999 41.2 98.9999 41.2 98.9999 41.1C98.9999 40.6 98.9999 40.2 98.9999 39.7V36.3C98.9999 35.8 98.9999 35.5 98.8999 35.3C99.1999 35.3 99.5999 35.4 99.7999 35.4C99.8999 35.4 99.8999 35.5 99.8999 35.5C99.8999 35.5 99.8999 35.6 99.7999 35.7C99.7999 35.8 99.7999 36 99.7999 36.4V37.2V37.2Z" fill="white"/>
<path d="M107.3 38.6C106.6 38.6 106.3 38.7 106.3 38.7C106.2 38.7 106.2 38.7 106.1 38.6C106.1 38.4 106 38.1 106 37.8C106.5 37.9 106.8 37.9 107.5 37.9H109.8C110.3 37.9 110.9 37.9 111.4 37.9C111.5 37.9 111.5 37.9 111.5 38C111.5 38.2 111.5 38.4 111.5 38.7C111.5 38.8 111.5 38.8 111.4 38.8C110.9 38.8 110.4 38.8 109.8 38.8H107.3V38.6Z" fill="white"/>
<path d="M116.6 36.2C116.5 35.9 116.5 35.6 116.3 35.3C116.6 35.3 116.9 35.3 117.2 35.3C117.3 35.3 117.3 35.3 117.3 35.4C117.3 35.5 117.3 35.6 117.3 35.9L117.4 36.5L118 36.4C118.4 36.3 118.9 36.2 119.3 36.1C119.3 36.1 119.4 36.1 119.4 36.2C119.5 36.4 119.5 36.6 119.5 36.8C119.5 36.8 119.5 36.9 119.4 36.9C119.1 37 118.6 37 118.2 37.1L117.6 37.2L117.8 38.1L118.8 37.9C119.3 37.8 119.6 37.7 119.9 37.7C120 37.7 120 37.7 120 37.8C120 38 120.1 38.2 120.1 38.4C120.1 38.5 120.1 38.5 120 38.5C119.8 38.5 119.4 38.6 118.9 38.7L117.9 38.9L118.1 39.7C118.2 40.2 118.3 40.6 118.4 41C118.4 41 118.4 41.1 118.3 41.1C118.2 41.1 117.9 41.2 117.7 41.2C117.6 41.2 117.6 41.2 117.6 41.1C117.6 40.8 117.5 40.3 117.4 39.9L117.2 39.1L116.2 39.3C115.7 39.4 115.3 39.5 115.1 39.5C115 39.5 115 39.5 114.9 39.4C114.8 39.2 114.8 38.9 114.7 38.7C115.1 38.7 115.5 38.6 116 38.5L117 38.3L116.8 37.4L116.1 37.5C115.7 37.6 115.2 37.7 115.1 37.7C115 37.7 115 37.7 115 37.6C114.9 37.4 114.8 37.1 114.8 36.9C115.2 36.9 115.6 36.8 116 36.7L116.6 36.6V36.2Z" fill="white"/>
<path d="M127.1 37.9H125.5C125.2 37.9 124.8 37.9 124.5 37.9C124.4 37.9 124.4 37.9 124.4 37.7C124.4 37.5 124.4 37.4 124.4 37.1C124.8 37.1 125 37.1 125.5 37.1H126.7C127 37.1 127.4 37.1 127.7 37.1C127.8 37.1 127.8 37.1 127.8 37.2C127.8 37.5 127.8 37.8 127.8 38.1V39.7C127.8 40 127.8 40.3 127.8 40.7C127.8 40.8 127.8 40.8 127.6 40.8C127.5 40.8 127.3 40.8 127.1 40.8C127 40.8 127 40.8 127 40.7V40.5H125.3C125 40.5 124.7 40.5 124.3 40.5C124.2 40.5 124.2 40.5 124.2 40.4C124.2 40.3 124.2 40.1 124.2 39.8C124.6 39.8 124.9 39.8 125.3 39.8H126.9V39H125.4C125.1 39 124.7 39 124.4 39C124.3 39 124.3 39 124.3 38.8C124.3 38.7 124.3 38.5 124.3 38.2C124.7 38.2 124.9 38.2 125.4 38.2H126.9V37.9H127.1Z" fill="white"/>
<path d="M133.3 38.6C132.6 38.6 132.3 38.7 132.3 38.7C132.2 38.7 132.2 38.7 132.1 38.6C132.1 38.4 132 38.1 132 37.8C132.5 37.9 132.8 37.9 133.5 37.9H135.8C136.3 37.9 136.9 37.9 137.4 37.9C137.5 37.9 137.5 37.9 137.5 38C137.5 38.2 137.5 38.4 137.5 38.7C137.5 38.8 137.5 38.8 137.4 38.8C136.9 38.8 136.4 38.8 135.8 38.8H133.3V38.6Z" fill="white"/>
</g>
<defs>
<clipPath id="clip0">
<rect width="191" height="42.9" fill="white"/>
</clipPath>
</defs>
</svg>
