<svg width="190" height="39" viewBox="0 0 190 39" fill="none" xmlns="http://www.w3.org/2000/svg">
<g clip-path="url(#clip0)">
<path d="M14.1356 14.6693L13.6325 18.6148C12.8276 17.6031 12.0731 16.8949 11.3688 16.4397C10.6645 15.9844 9.80937 15.7821 8.85359 15.7821C7.39476 15.7821 6.18745 16.3385 5.23166 17.4008C4.27588 18.463 3.82314 19.8794 3.82314 21.5992C3.82314 23.2179 4.27588 24.4825 5.13106 25.4436C6.03654 26.4047 7.19354 26.9105 8.60206 26.9105C9.96029 26.9105 11.3688 26.3035 12.8276 25.1401L12.3246 29.2373C10.8155 29.8444 9.40694 30.1479 8.09902 30.1479C5.68441 30.1479 3.72253 29.3385 2.2134 27.7704C0.754567 26.1517 0 24.1284 0 21.5992C0 19.0194 0.804872 16.8444 2.41461 15.1245C4.02436 13.4047 6.03654 12.4942 8.45115 12.4942C10.4633 12.5447 12.3246 13.2529 14.1356 14.6693Z" fill="black"/>
<path d="M37.3259 13.1012L35.3137 29.5914H31.4906L31.7421 27.821C30.0821 29.2879 28.3717 29.9961 26.6111 29.9961C24.448 29.9961 22.6873 29.2374 21.2788 27.7704C19.9206 26.3035 19.2163 24.3813 19.2163 22.0039C19.2163 19.2724 20.0212 17.0467 21.5806 15.3268C23.1401 13.5564 25.1522 12.6965 27.6675 12.6965C28.8245 12.6965 29.8306 12.8988 30.6857 13.2529C31.5409 13.6576 32.3961 14.3152 33.2513 15.2257L33.5028 13.0506H37.3259V13.1012ZM32.5973 20.8405C32.5973 19.3735 32.1949 18.2101 31.3397 17.2996C30.4845 16.3891 29.4281 15.9338 28.1202 15.9338C26.6614 15.9338 25.4541 16.4903 24.4983 17.6537C23.5425 18.8171 23.0394 20.1829 23.0394 21.8521C23.0394 23.3191 23.4419 24.4825 24.2468 25.393C25.0516 26.3035 26.108 26.7588 27.3656 26.7588C28.7742 26.7588 29.9815 26.2023 31.0379 25.0389C32.0943 23.8249 32.5973 22.4591 32.5973 20.8405Z" fill="black"/>
<path d="M60.5666 13.1012L58.5544 29.6926C58.4035 30.7043 58.3029 31.5642 58.152 32.2724C58.0011 33.0311 57.7999 33.6381 57.5986 34.144C57.1962 35.1556 56.5925 36.0661 55.7877 36.7743C54.2282 38.1907 52.2161 38.8988 49.7511 38.8988C47.1856 38.8988 45.1231 38.2412 43.5134 36.8755C42.7085 36.2179 42.1552 35.4086 41.803 34.5486C41.5012 33.7393 41.3 32.6265 41.3 31.2101H45.0225C45.1231 32.7782 45.5256 33.8911 46.2298 34.5992C46.9341 35.3074 47.9905 35.6615 49.4493 35.6615C51.0088 35.6615 52.2161 35.2568 53.0712 34.3969C53.8761 33.537 54.4295 32.2218 54.6307 30.3502L54.9325 28.0739C53.3228 29.3385 51.6124 29.9455 49.8014 29.9455C47.588 29.9455 45.7268 29.1868 44.268 27.6693C42.8091 26.1012 42.1049 24.179 42.1049 21.8016C42.1049 19.1712 42.96 16.9961 44.6201 15.2763C46.3304 13.5564 48.4432 12.6459 50.9584 12.6459C52.1658 12.6459 53.1718 12.8482 53.9264 13.2023C54.7313 13.5564 55.5865 14.214 56.4919 15.1245L56.7435 13.1012H60.5666V13.1012ZM56.1398 20.891C56.1398 19.3735 55.6871 18.2101 54.7816 17.2996C53.8761 16.3891 52.6688 15.9339 51.21 15.9339C49.7008 15.9339 48.4432 16.4903 47.4371 17.6031C46.431 18.716 45.928 20.0817 45.928 21.8016C45.928 23.2685 46.3807 24.4825 47.2359 25.393C48.0911 26.3035 49.2481 26.7588 50.7069 26.7588C52.3167 26.7588 53.6246 26.2023 54.6307 25.0895C55.6368 23.9767 56.1398 22.5603 56.1398 20.891Z" fill="black"/>
<path d="M68.6153 22.7121C68.6153 23.9261 69.0177 24.9377 69.8729 25.6965C70.7281 26.4552 71.7845 26.8599 73.0924 26.8599C74.9034 26.8599 76.2616 26.2023 77.2174 24.8366L80.0847 26.4047C79.0786 27.7704 78.0725 28.6809 77.0161 29.2373C75.9597 29.7938 74.6015 30.0467 72.9918 30.0467C70.4263 30.0467 68.4141 29.2879 66.9049 27.7704C65.3958 26.2529 64.6412 24.2296 64.6412 21.751C64.6412 19.1206 65.4461 16.8949 67.1062 15.1245C68.7662 13.3541 70.8287 12.4942 73.3439 12.4942C75.7585 12.4942 77.7204 13.3035 79.1289 14.8716C80.5375 16.4903 81.292 18.6148 81.292 21.2957C81.292 21.5992 81.292 22.0545 81.2417 22.6615H68.6153V22.7121ZM77.4186 19.5759C77.0161 17.0467 75.6076 15.7821 73.2433 15.7821C70.9796 15.7821 69.5208 17.0467 68.8165 19.5759H77.4186Z" fill="black"/>
<path d="M90.0953 27.6693C90.0953 28.2763 89.8438 28.8327 89.391 29.2879C88.9383 29.7432 88.3849 29.9455 87.731 29.9455C87.077 29.9455 86.5237 29.6926 86.071 29.2374C85.6182 28.7821 85.417 28.1751 85.417 27.5175C85.417 26.8599 85.6182 26.3035 86.0206 25.8483C86.4734 25.393 86.9764 25.1907 87.5801 25.1907C88.2843 25.1907 88.8377 25.4436 89.3407 25.8988C89.8438 26.4047 90.0953 27.0117 90.0953 27.6693Z" fill="#F0AC34"/>
<path d="M101.364 16.642L99.8041 29.5409H95.981L97.5404 16.642H95.3773L95.8301 13.0506H97.9932L98.9489 5.41245H102.772L101.816 13.0506H105.388L104.935 16.642H101.364Z" fill="black"/>
<path d="M126.365 21.144C126.365 23.6731 125.51 25.7977 123.749 27.5175C122.039 29.2373 119.876 30.0973 117.36 30.0973C114.694 30.0973 112.531 29.2879 110.871 27.6693C109.161 26.0506 108.305 23.9766 108.305 21.4475C108.305 18.8677 109.161 16.7432 110.921 15.0739C112.682 13.3541 114.895 12.4942 117.562 12.4942C120.177 12.4942 122.29 13.3035 123.9 14.9222C125.56 16.5408 126.365 18.6148 126.365 21.144ZM122.491 20.9922C122.491 19.4241 122.039 18.1595 121.133 17.249C120.228 16.2879 119.02 15.8327 117.511 15.8327C115.952 15.8327 114.694 16.3891 113.688 17.4008C112.682 18.463 112.179 19.8288 112.179 21.4475C112.179 23.0661 112.632 24.3813 113.587 25.393C114.543 26.4047 115.751 26.9105 117.26 26.9105C118.769 26.9105 120.026 26.3541 120.982 25.2412C121.988 24.1284 122.491 22.7121 122.491 20.9922Z" fill="black"/>
<path d="M137.935 0L135.571 19.4747L142.462 13.0506H147.593L138.991 20.5876L145.883 29.5914H141.255L135.269 21.751L134.313 29.5914H130.49L134.061 0H137.935Z" fill="black"/>
<path d="M169.476 13.1012L154.636 39.0506H150.26L156.849 27.5681L150.964 13.1012H155.089L159.163 23.6226L165.099 13.1012H169.476V13.1012Z" fill="black"/>
<path d="M190 21.144C190 23.6731 189.145 25.7977 187.384 27.5175C185.674 29.2373 183.511 30.0973 180.995 30.0973C178.329 30.0973 176.166 29.2879 174.506 27.6693C172.796 26.0506 171.941 23.9766 171.941 21.4475C171.941 18.8677 172.796 16.7432 174.557 15.0739C176.317 13.3541 178.531 12.4942 181.197 12.4942C183.813 12.4942 185.925 13.3035 187.535 14.9222C189.145 16.5408 190 18.6148 190 21.144ZM186.076 20.9922C186.076 19.4241 185.624 18.1595 184.718 17.249C183.813 16.2879 182.605 15.8327 181.096 15.8327C179.537 15.8327 178.279 16.3891 177.273 17.4008C176.267 18.463 175.764 19.8288 175.764 21.4475C175.764 23.0661 176.217 24.3813 177.172 25.393C178.128 26.4047 179.335 26.9105 180.845 26.9105C182.354 26.9105 183.611 26.3541 184.567 25.2412C185.624 24.1284 186.076 22.7121 186.076 20.9922Z" fill="black"/>
</g>
<defs>
<clipPath id="clip0">
<rect width="190" height="39" fill="white"/>
</clipPath>
</defs>
</svg>
